<?xml version="1.0" encoding="utf-8"?>
<!-- Generator: Adobe Illustrator 25.4.1, SVG Export Plug-In . SVG Version: 6.00 Build 0)  -->
<svg version="1.1" id="Layer_1" xmlns="http://www.w3.org/2000/svg" xmlns:xlink="http://www.w3.org/1999/xlink" x="0px" y="0px"
	 viewBox="0 0 404.21 394.79" style="enable-background:new 0 0 404.21 394.79;" xml:space="preserve">
<style type="text/css">
	.st0{fill:#FFFFFF;}
	.st1{fill:#757EF8;}
	.st2{fill:#F714D7;}
</style>
<g>
	<g>
		<path d="M55.6,394.03h-6.1l-0.76-0.76V356.7h-0.76l-15.24,36.57l-0.76,0.76h-6.86l-0.76-0.76L9.13,356.7H8.36v36.57l-0.76,0.76
			h-6.1l-0.76-0.76v-51.81l0.76-0.76h8.38l0.76,0.76l17.52,42.67h0.76l17.52-42.67l0.76-0.76h8.38l0.76,0.76v51.81L55.6,394.03z"/>
		<path d="M75.41,394.03h-6.1l-0.76-0.76v-51.81l0.76-0.76h6.1l0.76,0.76v51.81L75.41,394.03z"/>
		<path d="M121.88,394.03H89.12l-0.76-0.76v-51.81l0.76-0.76h6.1l0.76,0.76v44.95l0.76,0.76h25.14l0.76,0.76v5.33L121.88,394.03z"/>
		<path d="M170.64,394.03h-4.57l-0.76-0.76l-4.57-11.43l-1.52-0.76h-20.57l-1.52,0.76l-4.57,11.43l-0.76,0.76h-4.57l-0.76-0.76
			v-5.33l18.29-46.48l0.76-0.76h6.86l0.76,0.76l18.29,46.48v5.33L170.64,394.03z M149.31,352.13h-0.76l-8.38,21.33l0.76,0.76h16
			l0.76-0.76L149.31,352.13z"/>
		<path d="M221.69,394.03h-6.86l-1.52-0.76l-25.91-39.62h-0.76v39.62l-0.76,0.76h-6.1l-0.76-0.76v-51.81l0.76-0.76h6.86l1.52,0.76
			l25.91,39.62h0.76v-39.62l0.76-0.76h6.1l0.76,0.76v51.81L221.69,394.03z"/>
		<path d="M256.73,339.93c16,0,25.14,11.43,25.14,27.43c0,16-9.14,27.43-25.14,27.43s-25.14-11.43-25.14-27.43
			C231.59,351.36,240.73,339.93,256.73,339.93z M256.73,387.94c11.43,0,17.52-8.38,17.52-20.57c0-12.19-6.1-20.57-17.52-20.57
			c-11.43,0-17.52,8.38-17.52,20.57C239.21,379.56,245.3,387.94,256.73,387.94z"/>
	</g>
	<path d="M303.72,149.53l-0.03,0.03c24.36,0.94,25.07,24.68,25.07,24.68l0.04-0.04c1.11,9.63,9.28,17.11,19.2,17.11l36.36,0
		c10.51,0,19.48-8.17,19.84-18.68c0.37-10.98-8.43-20-19.33-20H348c0,0-0.01,0-0.01,0l0.01-0.01c-22.18,0.2-23.91-18.41-24.03-22.23
		c0-0.05,0.01-0.1,0.01-0.15l0-36.36c0-10.51-8.17-19.48-18.68-19.84c-10.98-0.37-20,8.43-20,19.33v36.87
		C285.29,140.61,293.47,149.05,303.72,149.53z"/>
	<path d="M383.95,237.58c-11.1-0.62-20.59,7.87-21.21,18.97s7.87,20.59,18.97,21.21c11.09,0.62,20.59-7.87,21.21-18.97
		C403.54,247.7,395.05,238.2,383.95,237.58z"/>
	<path d="M340.38,278.57c0,0-20.85,0.85-23.03-21.26l-0.01,0.01v-78.2c0-10.68-8.66-19.34-19.34-19.34
		c-10.68,0-19.34,8.66-19.34,19.34v78.77c0,10.33,8.11,18.74,18.3,19.29l-0.01,0.01c0,0,21.64,1.84,23.57,21.83l0.01-0.01
		c0.3,10.72,9.06,19.31,19.85,19.31c10.98,0,19.88-8.9,19.88-19.88S351.36,278.57,340.38,278.57z"/>
	<path d="M253.93,0.17C243.8-1.13,234.94,5.2,232.26,14.2l-0.03-0.04c0,0-8.09,27.31-37.49,33.42l0.01,0.01
		c-10.48,0.23-18.92,8.78-18.92,19.32v63.48c0,10.68,8.66,19.34,19.34,19.34h0c10.68,0,19.34-8.66,19.34-19.34V80.66
		c0-14.91,7.86-28.92,20.95-36.06c4.81-2.62,10.5-4.51,17.11-4.89l-0.02-0.02c11.22-0.71,19.92-10.69,18.45-22.39
		C269.91,8.44,262.78,1.3,253.93,0.17z"/>
	<path d="M251.98,115.22c-10.39-0.34-19.05,7.3-20.36,17.26l-0.03-0.03c0,0-4.15,23.85-37.58,30.37l0.01,0.01
		c-10.17,1.44-18.18,8.99-18.18,19.28v116.45c0,10.68,8.66,19.34,19.34,19.34h0c10.68,0,19.34-8.66,19.34-19.34V195.49
		c0-12.46,5.28-24.47,14.87-32.42c5.56-4.61,12.79-8.14,21.91-8.11c11.34,0,20.47-9.5,19.85-20.98
		C270.6,123.81,262.16,115.55,251.98,115.22z"/>
	<path d="M145.14,156.02c-25-4.69-25.53-20.77-25.53-22.08c0-0.04,0.01-0.08,0.01-0.12c0-10.68-8.66-19.34-19.34-19.34H60.51
		c-10.68,0-19.34,8.66-19.34,19.34c0,0,0.49,17.3-25.59,22.2C6.7,157.78,0,165.6,0,174.99l0,122.49c0,10.49,8.15,19.42,18.63,19.79
		c11,0.39,20.05-8.41,20.05-19.33V174.99c0-0.15-0.02-0.3-0.02-0.45c-0.11-2.82,0.13-19.56,21.85-21.38h39.71
		c21.72,1.82,21.96,18.56,21.85,21.38c0,0.15-0.02,0.3-0.02,0.45v80.65c0,0.14,0.02,0.27,0.02,0.41l-0.02-0.01
		c-1.04,18.41-12.29,22.54-19.06,23.35c-0.77,0.09-1.54,0.08-2.32,0.03c-0.35-0.02-0.71-0.03-1.07-0.03c-0.55,0-1.09,0.04-1.62,0.08
		c-0.02,0-0.09-0.01-0.09-0.01l0.02,0.01c-10.31,0.87-18.38,9.6-18.17,20.19c0.2,10.29,8.51,18.91,18.79,19.45
		c11.47,0.61,20.96-8.51,20.96-19.85c0.24-20.39,19.88-23.89,23.8-24.38c0.09-0.01,0.18-0.02,0.28-0.03
		c0.27-0.03,0.45-0.05,0.45-0.05l-0.02-0.02c9.44-1.28,16.73-9.35,16.73-19.14v-80.65C160.72,165.6,154.02,157.78,145.14,156.02z"/>
</g>
</svg>
